<!-- Generated by IcoMoon.io -->
<svg version="1.1" xmlns="http://www.w3.org/2000/svg" width="32" height="32" viewBox="0 0 32 32">
<title>compare</title>
<path d="M20 16c0 2.761 2.239 5 5 5s5-2.239 5-5v0c0-0 0-0.001 0-0.001 0-0.163-0.039-0.316-0.108-0.452l0.003 0.006-3.999-7.997c-0.016-0.032-0.031-0.059-0.047-0.085l0.002 0.004c-0.179-0.287-0.493-0.475-0.851-0.475h-6.178c-0.313-0.849-0.972-1.506-1.801-1.809l-0.021-0.007v-3.184h-2v3.184c-0.85 0.31-1.509 0.967-1.815 1.795l-0.007 0.021h-6.178c-0.389 0-0.726 0.223-0.891 0.547l-0.003 0.006-4 8c-0.067 0.13-0.106 0.284-0.106 0.447v0c0 2.761 2.239 5 5 5s5-2.239 5-5v0c0-0 0-0.001 0-0.001 0-0.163-0.039-0.316-0.108-0.452l0.003 0.006-3.278-6.553h4.56c0.313 0.849 0.972 1.506 1.802 1.808l0.021 0.007v17.185h-9v2h20v-2h-9v-17.184c0.85-0.31 1.509-0.967 1.815-1.795l0.007-0.021h4.56l-3.277 6.553c-0.066 0.13-0.105 0.284-0.105 0.446 0 0 0 0.001 0 0.001v-0zM7 19c-1.293-0.005-2.393-0.828-2.808-1.979l-0.007-0.021h5.63c-0.422 1.172-1.522 1.995-2.814 2h-0.001zM9.382 15h-4.764l2.382-4.764zM16 9c-0.552 0-1-0.448-1-1s0.448-1 1-1c0.552 0 1 0.448 1 1v0c0 0.552-0.448 1-1 1v0zM25 19c-1.293-0.005-2.393-0.828-2.808-1.979l-0.007-0.021h5.63c-0.422 1.172-1.522 1.995-2.814 2h-0.001zM25 10.236l2.382 4.764h-4.764z"></path>
</svg>
