<!-- Generated by IcoMoon.io -->
<svg version="1.1" xmlns="http://www.w3.org/2000/svg" width="32" height="32" viewBox="0 0 32 32">
<title>favorite</title>
<path d="M16 28.72c-0.002 0-0.005 0-0.007 0-0.829 0-1.58-0.336-2.123-0.88l-10.3-10.3c-1.558-1.575-2.521-3.741-2.521-6.133 0-0.041 0-0.083 0.001-0.124l-0 0.006c0.034-4.426 3.629-8 8.060-8 0.028 0 0.056 0 0.085 0l-0.004-0c0.024-0 0.053-0 0.081-0 2.24 0 4.267 0.914 5.728 2.39l1.001 1.001 0.82-0.82c1.526-1.565 3.654-2.535 6.010-2.535 1.879 0 3.614 0.618 5.012 1.661l-0.022-0.016c1.964 1.523 3.216 3.884 3.216 6.536 0 2.273-0.919 4.332-2.407 5.824l-10.5 10.51c-0.543 0.544-1.294 0.88-2.123 0.88-0.003 0-0.005 0-0.008 0h0zM9.15 5.28c-0.002 0-0.004 0-0.006 0-1.654 0-3.154 0.656-4.255 1.722l0.002-0.002c-1.135 1.093-1.84 2.626-1.84 4.324 0 0.002 0 0.004 0 0.007v-0c-0 0.020-0 0.043-0 0.066 0 1.847 0.745 3.519 1.951 4.734l10.3 10.3c0.181 0.183 0.432 0.296 0.71 0.296s0.529-0.113 0.71-0.296l10.51-10.52c1.104-1.126 1.785-2.67 1.785-4.373 0-0.15-0.005-0.299-0.016-0.447l0.001 0.020c-0.115-1.86-1.036-3.483-2.415-4.539l-0.015-0.011c-1.043-0.776-2.357-1.243-3.78-1.243-1.802 0-3.429 0.748-4.588 1.951l-0.002 0.002-1.49 1.53c-0.181 0.183-0.432 0.296-0.71 0.296s-0.529-0.113-0.71-0.296l-1.7-1.7c-1.13-1.12-2.683-1.814-4.399-1.82h-0.001z"></path>
</svg>
