<!-- Generated by IcoMoon.io -->
<svg version="1.1" xmlns="http://www.w3.org/2000/svg" width="32" height="32" viewBox="0 0 32 32">
<title>rating</title>
<path fill="#ffc107" d="M31.257 13.317c-0.205-0.635-0.768-1.085-1.434-1.145l-9.045-0.821-3.577-8.372c-0.264-0.614-0.864-1.011-1.532-1.011s-1.268 0.397-1.532 1.012l-3.577 8.37-9.046 0.821c-0.665 0.061-1.226 0.511-1.432 1.145s-0.016 1.331 0.487 1.769l6.837 5.996-2.016 8.881c-0.148 0.653 0.106 1.328 0.648 1.72 0.291 0.21 0.632 0.317 0.976 0.317 0.296 0 0.59-0.080 0.854-0.238l7.802-4.663 7.799 4.663c0.571 0.343 1.29 0.312 1.831-0.080 0.542-0.393 0.795-1.068 0.648-1.72l-2.016-8.881 6.837-5.995c0.503-0.44 0.695-1.135 0.489-1.771z"></path>
</svg>
